PathFileType	4	(X/Y/Z)	C:\Users\WrightLab\Desktop\Jo\P4V124.trc
DataRate	CameraRate	NumFrames	NumMarkers	Units	OrigDataRate	OrigDataStartFrame	OrigNumFrames
100.00	100.00	       14	19	mm	100.00	71	       562
Frame#	Time	Headset_Front			Headset_Back			Headset_Left			Headset_Right			Left_Shoulder			Right_Shoulder			Sternum			C7			Left Elbow			Right Elbow			Left Wrist			Right Wrist			Left ASIS			Right ASIS			S2			Left Knee			Right Knee			Left Ankle			Right Ankle			
		X1	Y1	Z1	X2	Y2	Z2	X3	Y3	Z3	X4	Y4	Z4	X5	Y5	Z5	X6	Y6	Z6	X7	Y7	Z7	X8	Y8	Z8	X9	Y9	Z9	X10	Y10	Z10	X11	Y11	Z11	X12	Y12	Z12	X13	Y13	Z13	X14	Y14	Z14	X15	Y15	Z15	X16	Y16	Z16	X17	Y17	Z17	X18	Y18	Z18	X19	Y19	Z19	

71	0.700																									-104.21746	1126.08594	-1182.84985				-232.10004	870.17578	-1061.43884				-210.49565	958.03442	-1246.42822	-519.37787	982.71448	-1361.74585				-128.19908	488.97833	-1356.97083	-588.43903	532.15503	-1296.82471							
72	0.710																									-106.88155	1127.32983	-1167.74597				-238.59764	871.37610	-1053.94263	-635.28143	815.86310	-1442.07410	-219.39543	959.27271	-1239.15088	-528.09332	984.64526	-1357.90344				-139.70007	487.23044	-1335.76379	-590.54443	530.16785	-1293.14551							
73	0.720																									-116.24255	1130.44348	-1170.08289				-244.41263	872.03088	-1045.81714	-642.25684	816.90936	-1436.10535	-228.39857	959.05908	-1231.79224	-534.31458	986.10535	-1351.11438				-150.73036	488.40070	-1311.25232	-593.15204	528.66962	-1289.66931							
74	0.730																									-127.14857	1130.99011	-1163.36938				-251.83888	872.78485	-1038.99951	-648.89288	820.42126	-1424.59473	-237.60646	959.94781	-1225.92639	-542.99768	988.13037	-1345.24951				-162.94611	487.02399	-1292.02783	-595.21960	527.93848	-1286.25891							
75	0.740																									-134.79779	1131.43762	-1161.04956				-257.80615	873.91437	-1031.80725	-657.53027	821.94696	-1418.70935	-243.90768	961.91663	-1214.03711	-549.87366	989.29828	-1340.75183				-174.26584	485.70380	-1273.42017	-598.02454	527.81714	-1281.84351							
76	0.750																									-138.59958	1134.23376	-1149.79468				-264.04611	875.33905	-1025.71912	-664.19366	824.52942	-1409.15271	-251.09128	964.47443	-1206.66724	-556.95868	990.04077	-1335.52087				-187.16429	484.64450	-1255.06750	-602.68164	528.70856	-1279.01074							
77	0.760																									-149.16576	1134.74805	-1146.64221				-269.60275	875.75000	-1019.36145	-672.04321	825.76483	-1399.80945	-259.35724	965.14124	-1199.11206	-563.34900	991.69366	-1330.55261				-199.25974	483.52206	-1236.73132	-606.62445	528.68610	-1276.54382							
78	0.770																									-151.95708	1137.22400	-1139.07056				-275.94421	876.69104	-1013.04999	-680.24908	829.17456	-1389.09949	-266.56488	965.77509	-1191.30090	-570.82941	993.54108	-1326.13806				-209.75531	485.11099	-1216.00220	-610.40186	528.55914	-1274.68250							
79	0.780																									-160.79156	1136.54041	-1137.71851				-281.45526	878.03711	-1008.05365	-688.31958	831.65442	-1379.08594	-274.82031	969.20807	-1184.98425	-577.74030	995.65375	-1320.45068				-222.46664	485.57471	-1198.26660	-615.82947	528.43903	-1271.95630							
80	0.790																									-166.10500	1138.56409	-1128.68555				-286.20413	879.14874	-1001.86475	-696.24463	833.60962	-1369.08032	-281.24442	970.30719	-1176.73145	-583.73895	997.10718	-1315.68237				-236.02150	487.01407	-1181.19580	-617.76294	527.94098	-1268.83130							
81	0.800																									-172.55260	1139.13489	-1126.66870				-291.48361	880.57208	-997.78223	-704.59967	835.94897	-1359.23608	-289.31665	973.58051	-1170.06726	-591.17426	998.64990	-1310.46350				-247.56349	490.33990	-1161.27417	-621.05573	527.36810	-1266.73975							
82	0.810																									-177.24313	1141.71460	-1118.20825				-295.91861	882.02747	-992.03375	-713.18982	838.32251	-1349.12549	-296.00342	975.44244	-1161.78467	-596.30621	1000.07123	-1305.08459				-260.20221	493.63528	-1141.99902	-623.93152	527.35901	-1264.22827							
83	0.820																									-181.09538	1144.61462	-1112.06262				-300.75381	882.81458	-986.59143	-720.29047	840.87457	-1338.27795	-302.17480	978.72736	-1154.51501	-601.35590	999.68939	-1299.51123				-274.71851	496.13831	-1124.65942	-626.58685	526.79529	-1262.81934							
84	0.830																									-187.74983	1145.51624	-1108.94031				-305.39603	884.98743	-982.64020	-729.70001	843.94403	-1327.59546	-310.40198	981.10468	-1148.39185	-607.76746	1001.18311	-1293.67517				-288.44620	500.22882	-1106.40417	-627.65564	526.74963	-1261.69031							
